<?xml version="1.0" encoding="UTF-8" standalone="no"?>
<!-- Created with Inkscape (http://www.inkscape.org/) -->

<svg
   width="512"
   height="512"
   viewBox="0 0 135.46667 135.46667"
   version="1.1"
   id="svg1"
   xml:space="preserve"
   inkscape:version="1.4.2 (f4327f4, 2025-05-13)"
   sodipodi:docname="thoth-icon.svg"
   xmlns:inkscape="http://www.inkscape.org/namespaces/inkscape"
   xmlns:sodipodi="http://sodipodi.sourceforge.net/DTD/sodipodi-0.dtd"
   xmlns="http://www.w3.org/2000/svg"
   xmlns:svg="http://www.w3.org/2000/svg"><sodipodi:namedview
     id="namedview1"
     pagecolor="#ffffff"
     bordercolor="#111111"
     borderopacity="1"
     inkscape:showpageshadow="0"
     inkscape:pageopacity="0"
     inkscape:pagecheckerboard="1"
     inkscape:deskcolor="#d1d1d1"
     inkscape:document-units="mm"
     inkscape:zoom="0.70048013"
     inkscape:cx="324.06344"
     inkscape:cy="228.41476"
     inkscape:window-width="1344"
     inkscape:window-height="818"
     inkscape:window-x="1359"
     inkscape:window-y="-6"
     inkscape:window-maximized="1"
     inkscape:current-layer="layer1" /><defs
     id="defs1"><clipPath
       clipPathUnits="userSpaceOnUse"
       id="clipPath2"><rect
         style="fill:none;stroke:#624040;stroke-width:0.0530384;stroke-linecap:square;stroke-linejoin:miter;stroke-dasharray:none"
         id="rect2"
         width="130.1163"
         height="120.88215"
         x="28.57239"
         y="73.314804" /></clipPath><clipPath
       clipPathUnits="userSpaceOnUse"
       id="clipPath14"><rect
         style="fill:none;fill-opacity:1;stroke:#624040;stroke-width:0.1445;stroke-linecap:square;stroke-linejoin:round;stroke-dasharray:none"
         id="rect14"
         width="137.63629"
         height="137.63629"
         x="30.12575"
         y="66.5261" /></clipPath><clipPath
       clipPathUnits="userSpaceOnUse"
       id="clipPath15"><rect
         style="fill:none;fill-opacity:1;stroke:#624040;stroke-width:0.768383;stroke-linecap:square;stroke-linejoin:round;stroke-dasharray:none"
         id="rect16"
         width="130.11311"
         height="130.11311"
         x="33.753662"
         y="69.791214" /></clipPath></defs><g
     inkscape:label="Layer 1"
     inkscape:groupmode="layer"
     id="layer1"
     transform="translate(-22.160801,-53.548901)"><path
       style="fill:#1faafe;fill-opacity:1;stroke:#624040;stroke-width:0.381528;stroke-linecap:square;stroke-linejoin:miter;stroke-dasharray:none"
       d=""
       id="path7"
       transform="matrix(0.26458333,0,0,0.26458333,22.160801,53.548901)" /><g
       id="g10"
       transform="matrix(1.0421683,0,0,1.0421683,-12.898159,-19.256109)"
       clip-path="url(#clipPath15)"
       inkscape:export-filename="toth-icon-180.png"
       inkscape:export-xdpi="96"
       inkscape:export-ydpi="96"><rect
         style="fill:#1faafe;fill-opacity:1;stroke:#624040;stroke-width:0.0499999;stroke-linecap:square;stroke-linejoin:miter;stroke-dasharray:none"
         id="rect8"
         width="147.43166"
         height="144.22661"
         x="24.831665"
         y="64.232353" /><path
         style="fill:#000000"
         d="M 23.469947,134.85955 V 53.528577 h 75.391745 75.391758 v 81.330973 81.331 H 98.861692 23.469947 Z m 54.01969,55.96366 c 0.21395,-0.16801 0.5381,-0.62023 0.72032,-1.00494 0.32237,-0.68059 0.33131,-0.83148 0.33131,-5.59015 v -4.89068 h 5.08011 5.08011 v 4.89068 c 0,4.75867 0.009,4.90956 0.33131,5.59015 0.8958,1.89122 3.07693,2.02319 4.29795,0.26005 0.28978,-0.41845 0.30553,-0.67275 0.3462,-5.58964 l 0.0426,-5.15124 h 5.074315 5.074308 v 4.89068 c 0,4.75867 0.009,4.90956 0.33132,5.59015 0.39082,0.82511 0.87471,1.24207 1.66795,1.43725 0.73553,0.18097 1.52225,-0.0387 2.13705,-0.59681 0.84072,-0.76314 0.87017,-0.97947 0.87017,-6.39183 v -4.92944 h 5.15373 5.15374 v 5.02185 c 0,4.8207 0.0125,5.04582 0.31185,5.62043 0.89488,1.71765 3.48381,1.68705 4.36554,-0.0516 0.22422,-0.44212 0.26111,-1.1207 0.30163,-5.54721 l 0.0462,-5.04348 h 2.25373 c 3.67723,0 5.88905,-0.59412 8.18229,-2.19787 1.50436,-1.05206 2.33505,-1.88172 3.37563,-3.37146 1.09924,-1.57372 1.84987,-3.26198 2.32289,-5.22444 0.30251,-1.25505 0.37959,-2.03009 0.44626,-4.48736 l 0.0806,-2.97029 4.65472,-0.0478 c 4.56327,-0.0469 4.66543,-0.055 5.19949,-0.41328 1.98008,-1.3282 1.46956,-4.42434 -0.81767,-4.95886 -0.4889,-0.11426 -2.23407,-0.15927 -4.91773,-0.12685 l -4.15989,0.0503 9e-5,-5.27339 10e-5,-5.27339 4.60154,-0.0481 c 4.17648,-0.0436 4.65377,-0.076 5.16688,-0.35089 1.2946,-0.69345 1.75351,-2.55553 0.95186,-3.86234 -0.71175,-1.16024 -0.87473,-1.192 -6.10187,-1.18884 l -4.61841,0.003 v -5.30658 -5.30659 h 4.5706 c 4.25846,0 4.60947,-0.0214 5.13981,-0.31327 1.90386,-1.04779 1.87233,-3.84257 -0.054,-4.78639 -0.54237,-0.26573 -1.03936,-0.29459 -5.12849,-0.29774 l -4.52792,-0.003 v -5.32146 -5.32146 l 4.52792,-0.003 c 4.08913,-0.003 4.58612,-0.032 5.12849,-0.29774 1.1111,-0.54439 1.72947,-1.86521 1.41067,-3.0131 -0.23545,-0.84776 -0.70185,-1.43803 -1.41067,-1.78532 -0.54219,-0.26566 -1.03886,-0.2946 -5.10944,-0.29775 l -4.50887,-0.003 -0.0795,-3.05785 c -0.0898,-3.45671 -0.33562,-4.860871 -1.20698,-6.895366 -1.36582,-3.18904 -4.06199,-5.91117 -7.0556,-7.12358 -1.6869,-0.68318 -2.82205,-0.88039 -5.64795,-0.98122 l -2.6873,-0.0959 -0.003,-4.703247 c -0.003,-4.24297 -0.0301,-4.76697 -0.27734,-5.35436 -0.42449,-1.00832 -1.06539,-1.41393 -2.23413,-1.41393 -0.8341,0 -1.04369,0.0618 -1.50947,0.44504 -0.97942,0.8059 -0.98231,0.82423 -0.98231,6.21875 v 4.852797 h -5.15374 -5.15373 v -4.900847 c 0,-4.83451 -0.005,-4.9081 -0.33482,-5.43681 -0.52138,-0.83464 -1.21127,-1.25836 -2.04881,-1.25836 -0.9341,0 -1.76198,0.46077 -2.20308,1.22615 -0.34091,0.59153 -0.34683,0.67457 -0.39082,5.48525 l -0.0447,4.884617 h -5.072498 -5.072245 l -0.003,-4.725767 c -0.003,-4.26494 -0.03,-4.78927 -0.27734,-5.37689 -0.42641,-1.01289 -1.06422,-1.41393 -2.24868,-1.41393 -1.09774,0 -1.55539,0.25373 -2.14592,1.18975 -0.3259,0.51658 -0.33131,0.60513 -0.33131,5.42599 v 4.899097 h -5.15377 -5.15373 v -4.900847 c 0,-4.82086 -0.005,-4.90941 -0.33131,-5.42599 -0.51491,-0.81616 -1.04182,-1.15473 -1.91925,-1.23322 -1.00256,-0.0897 -1.84625,0.34014 -2.33615,1.19019 -0.34091,0.59153 -0.34682,0.67457 -0.39082,5.48525 l -0.0447,4.884617 h -1.87343 c -3.38006,0 -5.6256,0.50679 -7.80341,1.76112 -2.32579,1.33956 -3.98321,3.09884 -5.23471,5.55639 -1.19905,2.354555 -1.56468,4.229936 -1.56468,8.025446 v 2.76589 l -4.52792,0.003 c -4.08914,0.003 -4.58613,0.032 -5.1285,0.29775 -1.94917,0.95501 -1.94917,3.84341 0,4.79842 0.54237,0.26574 1.03936,0.29459 5.1285,0.29774 l 4.52792,0.003 v 5.32146 5.32146 l -4.52792,0.003 c -4.08914,0.003 -4.58613,0.032 -5.1285,0.29774 -1.93658,0.94885 -1.96799,3.73302 -0.054,4.78639 0.53036,0.29188 0.88137,0.31327 5.1418,0.31327 h 4.57259 l -0.0388,5.27728 -0.0388,5.27729 -4.56825,0.0215 c -5.01973,0.0236 -5.09729,0.0371 -5.86327,1.01916 -1.14464,1.46749 -0.52306,3.70485 1.18242,4.25607 0.40832,0.13198 1.96799,0.19249 4.96112,0.19249 h 4.36557 l -0.0388,5.243 -0.0388,5.243 -4.56473,0.0387 c -4.54978,0.0386 -4.56681,0.04 -5.19782,0.42982 -1.69075,1.04441 -1.72226,3.52866 -0.0589,4.64439 0.5342,0.35834 0.6354,0.36635 5.21993,0.41339 l 4.67517,0.048 v 2.67821 c 0,1.66748 0.0797,3.12789 0.21133,3.86974 0.49785,2.80698 1.58523,5.14979 3.31109,7.1339 1.31768,1.51483 2.51189,2.45896 4.17158,3.29798 1.89189,0.95642 2.73614,1.12782 6.03702,1.22569 l 2.90818,0.0862 v 5.03942 c 0,4.96457 0.005,5.04722 0.33131,5.56457 0.65668,1.04087 1.56562,1.46919 2.66642,1.25648 0.31246,-0.0604 0.74317,-0.24724 0.95712,-0.41525 z m -7.48884,-16.89922 c -1.33878,-0.062 -2.22827,-0.18407 -2.72412,-0.37398 -2.48054,-0.95007 -4.48868,-3.31805 -5.15534,-6.07914 -0.1907,-0.78986 -0.21927,-5.11001 -0.21927,-33.16729 0,-35.577771 -0.066,-33.06584 0.9216,-35.092821 0.60214,-1.23589 1.99412,-2.737525 3.13976,-3.387105 1.87966,-1.06575 -0.48067,-0.99439 32.818765,-0.99231 25.698678,0.002 30.309678,0.0357 30.982548,0.22887 2.58248,0.7415 4.84396,3.091575 5.65673,5.878356 l 0.32623,1.11854 v 32.24647 c 0,26.98714 -0.0333,32.38896 -0.20446,33.12014 -0.71803,3.06829 -2.91501,5.46596 -5.75915,6.28525 -0.89192,0.25693 -2.89303,0.27677 -29.37628,0.29136 -15.630523,0.009 -29.313683,-0.0257 -30.407013,-0.0763 z m 58.605303,-6.61965 c 0.29439,-0.15866 0.62601,-0.51613 0.77342,-0.83372 0.2437,-0.52504 0.25598,-2.32007 0.22087,-32.26951 -0.0369,-31.46015 -0.0395,-31.71638 -0.33167,-32.06983 -0.68687,-0.83099 0.9355,-0.78899 -30.480648,-0.78899 -31.663665,0 -29.906735,-0.0489 -30.451615,0.84817 -0.2361,0.38872 -0.24965,2.43392 -0.21416,32.3309 0.0376,31.66208 0.0402,31.91876 0.33238,32.272 0.6757,0.81697 -0.90208,0.77635 30.407015,0.78275 27.539048,0.006 29.258828,-0.0101 29.744408,-0.27177 z m -58.016303,-6.70882 v -4.29127 h 4.69379 4.6938 l 3.25768,4.20384 c 1.79172,2.31212 3.25767,4.23986 3.25767,4.28387 0,0.044 -3.57816,0.0834 -7.95147,0.0874 l -7.95147,0.007 z m 17.70601,2.57897 c -0.73536,-0.93919 -2.6,-3.35172 -4.14366,-5.36117 l -2.80665,-3.65354 -0.003,-2.79496 c -0.003,-2.57866 0.0191,-2.81681 0.28596,-3.07731 0.42585,-0.41575 0.79602,-1.5778 0.68808,-2.16004 -0.38896,-2.098 -2.89005,-2.57334 -3.92307,-0.74558 -0.48888,0.865 -0.31755,2.20643 0.35921,2.81234 0.19309,0.17287 0.23058,0.65528 0.23058,2.96686 v 2.76042 h -4.19661 -4.19661 v -3.73297 -3.73297 l 1.80381,-0.003 1.8038,-0.003 2.13512,-3.10973 c 2.99183,-4.35751 3.94326,-5.24131 6.72465,-6.24657 2.18668,-0.79031 1.96278,-1.30063 1.96485,4.47834 0.002,4.94761 0.003,4.96626 0.35531,5.63104 0.19444,0.36685 2.77788,4.45289 5.74096,9.08009 2.96308,4.62721 5.38742,8.45516 5.38742,8.50657 0,0.0514 -1.5464,0.0935 -3.43645,0.0935 h -3.43645 z m 9.830337,-0.24071 C 95.801687,159.27214 88.058717,147.17085 87.641607,146.54776 l -0.4168,-0.62263 0.0389,-4.85768 0.0389,-4.85767 0.94323,-0.11222 c 0.51877,-0.0617 1.14159,-0.18682 1.38403,-0.27799 0.24244,-0.0912 0.51374,-0.16579 0.60289,-0.16581 0.11236,-4e-5 0.16209,0.94156 0.16209,3.06913 v 3.06918 l 1.23709,1.97434 c 0.6804,1.08589 2.07976,3.29676 3.10969,4.91306 5.822193,9.1369 10.053293,15.82928 10.114833,15.99877 0.0536,0.14754 -0.58802,0.19391 -2.71321,0.19611 l -2.783378,0.003 z m 8.795116,0.48576 c -3.09933,-4.83718 -5.60089,-8.80308 -5.66321,-8.97827 -0.0541,-0.15205 0.19626,-0.20293 1.01144,-0.20555 1.28697,-0.004 2.08184,-0.33708 2.68722,-1.12557 0.22756,-0.29638 1.70241,-1.98399 3.27746,-3.75026 2.27249,-2.54839 2.97623,-3.2451 3.40866,-3.37467 0.29972,-0.0898 1.75423,-0.16367 3.23225,-0.16416 l 2.6873,-8.8e-4 v 2.27563 c 0,2.24031 0.006,2.2816 0.37967,2.66073 0.37181,0.37714 0.44087,0.38617 3.34079,0.43709 3.19433,0.0561 4.02285,-0.0685 4.38664,-0.65973 0.27773,-0.45137 0.38318,-10.68586 0.14513,-14.08585 -0.40135,-5.73233 -1.98465,-10.79281 -4.80936,-15.37147 l -1.1042,-1.78984 0.3124,-0.43406 c 0.3115,-0.43281 6.79101,-7.50287 6.87617,-7.50287 0.0247,0 0.0281,12.0269 0.008,26.72645 l -0.0372,26.72644 -9.59646,0.0465 -9.59646,0.0465 z m -8.442188,-13.35352 c -0.655868,-0.98102 -2.040615,-3.14184 -3.077205,-4.80182 l -1.88473,-3.01814 2.7091,-0.091 c 2.940685,-0.0988 3.620775,-0.23308 5.262433,-1.03892 2.99313,-1.46924 5.64148,-4.63505 6.57976,-7.86535 l 0.25966,-0.89396 0.8991,0.21819 c 3.59314,0.87194 6.6285,3.66073 7.75813,7.12794 0.25167,0.77243 0.56623,2.57052 0.57415,3.28186 0.003,0.23384 -0.33566,0.26818 -3.12954,0.3177 l -3.13245,0.0555 -0.95372,0.50748 c -0.83469,0.44414 -1.3477,0.95658 -4.11012,4.10552 -1.73601,1.97893 -3.31406,3.66271 -3.50676,3.74175 -0.1927,0.079 -0.95898,0.14218 -1.70284,0.14032 l -1.352468,-0.003 z m 21.523628,-1.90281 c -0.0419,-0.28395 -0.10268,-2.05313 -0.13497,-3.93153 -0.05,-2.90839 -0.10584,-3.58828 -0.37629,-4.58101 -0.56631,-2.07873 -1.38872,-3.5629 -2.95077,-5.32509 -1.85382,-2.09134 -4.29897,-3.57751 -7.08318,-4.30518 -2.58569,-0.67578 -2.83671,-0.5833 -3.25523,1.19921 -0.76717,3.26747 -2.80964,6.1682 -5.21063,7.40019 -1.599528,0.82075 -2.770606,1.01961 -5.707843,0.96925 l -2.53294,-0.0434 -0.0397,-3.37678 -0.0397,-3.37679 0.66937,-1.22985 c 0.86802,-1.59486 1.25074,-2.93977 1.25074,-4.39529 0,-1.64571 -0.3195,-2.50864 -1.35349,-3.65567 -0.75231,-0.83455 -0.85166,-1.0157 -0.77189,-1.40751 0.12129,-0.59575 -0.16293,-1.29752 -0.61562,-1.52003 -0.86884,-0.42706 -3.01355,-0.10481 -5.70809,0.85766 -2.95969,1.05717 -5.97552,2.77722 -8.44986,4.81929 -1.24747,1.02953 -1.34348,1.08197 -1.12269,0.61313 0.46251,-0.98215 1.51223,-2.42651 2.5849,-3.55669 2.63512,-2.77642 5.56947,-4.43813 10.33418,-5.85219 0.76206,-0.22616 0.99909,-0.40769 2.0615,-1.57885 1.33369,-1.4702 2.32557,-2.10447 4.10137,-2.62266 3.596685,-1.04955 8.928513,-0.76014 13.028923,0.70721 1.52918,0.54722 3.82125,1.76758 5.27407,2.80804 3.47011,2.4852 6.71875,7.3751 8.23923,12.40185 1.15779,3.82767 1.40532,6.25752 1.40549,13.7968 l 1.2e-4,5.49671 -1.12659,0.10274 c -0.61962,0.0565 -1.41176,0.10273 -1.76032,0.10273 -0.60117,0 -0.63765,-0.0265 -0.71,-0.51626 z M 99.047252,121.81279 c 0.38551,-0.0936 1.246918,-0.53999 1.914248,-0.99195 0.66732,-0.45195 1.44523,-0.92085 1.72868,-1.042 0.82975,-0.35463 1.178,-0.78113 1.178,-1.44271 0,-0.76725 -0.16837,-0.91368 -2.44339,-2.12515 -2.461358,-1.31068 -2.802828,-1.42006 -4.165356,-1.33415 -1.520367,0.0959 -2.803807,0.75342 -3.826357,1.96039 -1.15244,1.36029 -1.17953,2.12518 -0.11923,3.36609 1.39181,1.62888 3.36845,2.18377 5.733405,1.60948 z m -2.550555,-1.94549 c -0.67865,-0.19498 -1.39348,-0.65718 -1.76673,-1.14235 -0.1784,-0.2319 -0.14959,-0.31278 0.23395,-0.65668 1.60791,-1.44172 3.259047,-1.50623 4.802315,-0.18765 l 0.584058,0.49903 -0.31008,0.35608 c -0.446948,0.51323 -1.598678,1.13791 -2.282886,1.2382 -0.32395,0.0475 -0.89123,-5e-4 -1.260627,-0.10663 z m -25.9069,4.11106 v -19.93563 h 24.6981 24.698103 l -3.97274,4.33188 -3.97274,4.33187 -0.51537,-0.21818 c -2.55227,-1.08047 -4.9972,-1.76012 -7.55406,-2.09991 -2.08382,-0.27693 -6.565556,-0.11054 -8.228883,0.3055 -2.69539,0.67418 -4.70536,1.85955 -5.91741,3.48974 -0.6245,0.83995 -0.77875,0.95822 -1.37559,1.05478 -1.04913,0.16972 -3.49481,1.13699 -5.22458,2.06634 -4.04615,2.17384 -7.17622,5.30653 -8.92237,8.92983 -0.69798,1.44831 -1.53999,4.0706 -1.79588,5.59292 -0.20647,1.22829 0.0196,1.76126 0.74698,1.76126 0.66058,0 0.94826,-0.22486 1.58811,-1.24131 0.88796,-1.4106 4.19048,-4.35912 6.43231,-5.74285 4.10633,-2.53455 7.92528,-3.1148 9.88538,-1.50198 1.03956,0.85537 1.356,2.44663 0.8003,4.02432 -0.1518,0.431 -0.70866,1.49597 -1.23745,2.36661 -0.89489,1.47341 -1.01082,1.60037 -1.67504,1.8343 -0.39248,0.13823 -1.59645,0.36052 -2.67549,0.49399 -3.36014,0.41562 -5.49837,1.18677 -7.43857,2.68273 -1.1821,0.91144 -2.09981,1.97697 -3.71367,4.31184 -0.72465,1.04841 -1.51606,2.17426 -1.75869,2.50188 l -0.44114,0.59568 -1.2148,1e-5 h -1.21481 z m 46.751713,-7.39268 c -0.48593,-0.44498 -1.38956,-1.22385 -2.00808,-1.73081 l -1.12458,-0.92174 4.58581,-4.9452 4.5858,-4.9452 h 1.87657 1.87657 l -0.004,1.78706 -0.004,1.78706 -4.45063,4.88895 -4.45064,4.88895 z"
         id="path2" /><rect
         style="fill:none;fill-opacity:1;stroke:#624040;stroke-width:0.0522311;stroke-linecap:square;stroke-linejoin:round;stroke-dasharray:none"
         id="rect9"
         width="124.99417"
         height="128.90024"
         x="33.913715"
         y="80.091789"
         ry="20.030916"
         rx="0" /></g></g></svg>
